<svg width="258" height="58" viewBox="0 0 258 58" fill="none" xmlns="http://www.w3.org/2000/svg">
<circle cx="6.5" cy="12.5" r="6.5" fill="#242424"/>
<circle cx="22.5" cy="12.5" r="6.5" fill="#242424"/>
<circle cx="6.5" cy="28.5" r="6.5" fill="#242424"/>
<circle cx="22.5" cy="28.5" r="6.5" fill="#242424"/>
<circle cx="6.5" cy="44.5" r="6.5" fill="#242424"/>
<circle cx="22.5" cy="44.5" r="6.5" fill="#242424"/>
<path d="M61.5455 46H48.642V11.0909H61.5284C65.0852 11.0909 68.1477 11.7898 70.7159 13.1875C73.2955 14.5739 75.2841 16.5739 76.6818 19.1875C78.0795 21.7898 78.7784 24.9034 78.7784 28.5284C78.7784 32.1648 78.0795 35.2898 76.6818 37.9034C75.2955 40.517 73.3125 42.5227 70.733 43.9205C68.1534 45.3068 65.0909 46 61.5455 46ZM57.0795 38.8068H61.2216C63.1761 38.8068 64.8295 38.4773 66.1818 37.8182C67.5455 37.1477 68.5739 36.0625 69.267 34.5625C69.9716 33.0511 70.3239 31.0398 70.3239 28.5284C70.3239 26.017 69.9716 24.017 69.267 22.5284C68.5625 21.0284 67.5227 19.9489 66.1477 19.2898C64.7841 18.6193 63.1023 18.2841 61.1023 18.2841H57.0795V38.8068ZM93.5432 46.4943C90.8045 46.4943 88.4409 45.9545 86.4523 44.875C84.475 43.7841 82.9523 42.233 81.8841 40.2216C80.8273 38.1989 80.2989 35.7955 80.2989 33.0114C80.2989 30.3068 80.833 27.9432 81.9011 25.9205C82.9693 23.8864 84.475 22.3068 86.4182 21.1818C88.3614 20.0455 90.6511 19.4773 93.2875 19.4773C95.1511 19.4773 96.8557 19.767 98.4011 20.3466C99.9466 20.9261 101.282 21.7841 102.407 22.9205C103.532 24.0568 104.407 25.4602 105.032 27.1307C105.657 28.7898 105.969 30.6932 105.969 32.8409V34.9205H83.2136V30.0795H98.2136C98.2023 29.1932 97.992 28.4034 97.583 27.7102C97.1739 27.017 96.6114 26.4773 95.8955 26.0909C95.1909 25.6932 94.3784 25.4943 93.458 25.4943C92.5261 25.4943 91.6909 25.7045 90.9523 26.125C90.2136 26.5341 89.6284 27.0966 89.1966 27.8125C88.7648 28.517 88.5375 29.3182 88.5148 30.2159V35.142C88.5148 36.2102 88.725 37.1477 89.1455 37.9545C89.5659 38.75 90.1625 39.3693 90.9352 39.8125C91.708 40.2557 92.6284 40.4773 93.6966 40.4773C94.4352 40.4773 95.1057 40.375 95.708 40.1705C96.3102 39.9659 96.8273 39.6648 97.2591 39.267C97.6909 38.8693 98.0148 38.3807 98.2307 37.8011L105.884 38.0227C105.566 39.7386 104.867 41.233 103.787 42.5057C102.719 43.767 101.316 44.75 99.5773 45.4545C97.8386 46.1477 95.8273 46.4943 93.5432 46.4943ZM132.521 19.8182L123.538 46H113.993L105.027 19.8182H113.805L118.629 37.8523H118.902L123.743 19.8182H132.521ZM133.317 55.8182V19.8182H141.567V24.3011H141.823C142.164 23.5057 142.647 22.7386 143.272 22C143.908 21.2614 144.715 20.6591 145.692 20.1932C146.681 19.7159 147.863 19.4773 149.238 19.4773C151.056 19.4773 152.755 19.9545 154.334 20.9091C155.925 21.8636 157.209 23.3352 158.186 25.3239C159.164 27.3125 159.652 29.8466 159.652 32.9261C159.652 35.892 159.181 38.375 158.238 40.375C157.306 42.375 156.044 43.875 154.453 44.875C152.874 45.875 151.118 46.375 149.186 46.375C147.868 46.375 146.726 46.1591 145.76 45.7273C144.794 45.2955 143.982 44.7273 143.323 44.0227C142.675 43.3182 142.175 42.5625 141.823 41.7557H141.652V55.8182H133.317ZM141.482 32.9091C141.482 34.3182 141.669 35.5455 142.044 36.5909C142.431 37.6364 142.982 38.4489 143.698 39.0284C144.425 39.5966 145.294 39.8807 146.306 39.8807C147.328 39.8807 148.198 39.5966 148.914 39.0284C149.63 38.4489 150.169 37.6364 150.533 36.5909C150.908 35.5455 151.095 34.3182 151.095 32.9091C151.095 31.5 150.908 30.2784 150.533 29.2443C150.169 28.2102 149.63 27.4091 148.914 26.8409C148.209 26.2727 147.34 25.9886 146.306 25.9886C145.283 25.9886 144.414 26.267 143.698 26.8239C142.982 27.3807 142.431 28.1761 142.044 29.2102C141.669 30.2443 141.482 31.4773 141.482 32.9091ZM161.62 46V19.8182H169.717V24.5909H169.989C170.467 22.8636 171.245 21.5795 172.325 20.7386C173.404 19.8864 174.66 19.4602 176.092 19.4602C176.478 19.4602 176.876 19.4886 177.285 19.5455C177.694 19.5909 178.075 19.6648 178.427 19.767V27.0114C178.029 26.875 177.507 26.767 176.859 26.6875C176.222 26.608 175.654 26.5682 175.154 26.5682C174.166 26.5682 173.274 26.7898 172.478 27.233C171.694 27.6648 171.075 28.2727 170.62 29.0568C170.177 29.8295 169.955 30.7386 169.955 31.7841V46H161.62ZM190.303 46.4943C187.564 46.4943 185.2 45.9545 183.212 44.875C181.234 43.7841 179.712 42.233 178.643 40.2216C177.587 38.1989 177.058 35.7955 177.058 33.0114C177.058 30.3068 177.592 27.9432 178.661 25.9205C179.729 23.8864 181.234 22.3068 183.178 21.1818C185.121 20.0455 187.411 19.4773 190.047 19.4773C191.911 19.4773 193.615 19.767 195.161 20.3466C196.706 20.9261 198.041 21.7841 199.166 22.9205C200.291 24.0568 201.166 25.4602 201.791 27.1307C202.416 28.7898 202.729 30.6932 202.729 32.8409V34.9205H179.973V30.0795H194.973C194.962 29.1932 194.751 28.4034 194.342 27.7102C193.933 27.017 193.371 26.4773 192.655 26.0909C191.95 25.6932 191.138 25.4943 190.217 25.4943C189.286 25.4943 188.45 25.7045 187.712 26.125C186.973 26.5341 186.388 27.0966 185.956 27.8125C185.524 28.517 185.297 29.3182 185.274 30.2159V35.142C185.274 36.2102 185.484 37.1477 185.905 37.9545C186.325 38.75 186.922 39.3693 187.695 39.8125C188.467 40.2557 189.388 40.4773 190.456 40.4773C191.195 40.4773 191.865 40.375 192.467 40.1705C193.07 39.9659 193.587 39.6648 194.018 39.267C194.45 38.8693 194.774 38.3807 194.99 37.8011L202.643 38.0227C202.325 39.7386 201.626 41.233 200.547 42.5057C199.479 43.767 198.075 44.75 196.337 45.4545C194.598 46.1477 192.587 46.4943 190.303 46.4943ZM204.586 55.8182V19.8182H212.836V24.3011H213.091C213.432 23.5057 213.915 22.7386 214.54 22C215.177 21.2614 215.984 20.6591 216.961 20.1932C217.949 19.7159 219.131 19.4773 220.506 19.4773C222.324 19.4773 224.023 19.9545 225.603 20.9091C227.194 21.8636 228.478 23.3352 229.455 25.3239C230.432 27.3125 230.921 29.8466 230.921 32.9261C230.921 35.892 230.449 38.375 229.506 40.375C228.574 42.375 227.313 43.875 225.722 44.875C224.143 45.875 222.387 46.375 220.455 46.375C219.137 46.375 217.995 46.1591 217.029 45.7273C216.063 45.2955 215.251 44.7273 214.591 44.0227C213.944 43.3182 213.444 42.5625 213.091 41.7557H212.921V55.8182H204.586ZM212.751 32.9091C212.751 34.3182 212.938 35.5455 213.313 36.5909C213.699 37.6364 214.251 38.4489 214.966 39.0284C215.694 39.5966 216.563 39.8807 217.574 39.8807C218.597 39.8807 219.466 39.5966 220.182 39.0284C220.898 38.4489 221.438 37.6364 221.802 36.5909C222.177 35.5455 222.364 34.3182 222.364 32.9091C222.364 31.5 222.177 30.2784 221.802 29.2443C221.438 28.2102 220.898 27.4091 220.182 26.8409C219.478 26.2727 218.609 25.9886 217.574 25.9886C216.552 25.9886 215.682 26.267 214.966 26.8239C214.251 27.3807 213.699 28.1761 213.313 29.2102C212.938 30.2443 212.751 31.4773 212.751 32.9091ZM255.747 27.8125L248.093 28.017C248.014 27.4716 247.798 26.9886 247.446 26.5682C247.093 26.1364 246.633 25.8011 246.065 25.5625C245.508 25.3125 244.861 25.1875 244.122 25.1875C243.156 25.1875 242.332 25.3807 241.65 25.767C240.98 26.1534 240.65 26.6761 240.662 27.3352C240.65 27.8466 240.855 28.2898 241.275 28.6648C241.707 29.0398 242.474 29.3409 243.576 29.5682L248.622 30.5227C251.236 31.0227 253.179 31.8523 254.451 33.0114C255.736 34.1705 256.383 35.7045 256.395 37.6136C256.383 39.4091 255.849 40.9716 254.792 42.3011C253.747 43.6307 252.315 44.6648 250.497 45.4034C248.679 46.1307 246.599 46.4943 244.258 46.4943C240.52 46.4943 237.571 45.7273 235.412 44.1932C233.264 42.6477 232.037 40.5795 231.73 37.9886L239.963 37.7841C240.145 38.7386 240.616 39.4659 241.378 39.9659C242.139 40.4659 243.111 40.7159 244.292 40.7159C245.361 40.7159 246.23 40.517 246.9 40.1193C247.571 39.7216 247.912 39.1932 247.923 38.5341C247.912 37.9432 247.65 37.4716 247.139 37.1193C246.628 36.7557 245.826 36.4716 244.736 36.267L240.167 35.3977C237.542 34.9205 235.588 34.0398 234.304 32.7557C233.02 31.4602 232.383 29.8125 232.395 27.8125C232.383 26.0625 232.849 24.5682 233.792 23.3295C234.736 22.0795 236.076 21.125 237.815 20.4659C239.554 19.8068 241.605 19.4773 243.968 19.4773C247.514 19.4773 250.309 20.2216 252.355 21.7102C254.4 23.1875 255.531 25.2216 255.747 27.8125Z" fill="#242424"/>
</svg>
