<svg width="205" height="49" viewBox="0 0 205 49" fill="none" xmlns="http://www.w3.org/2000/svg">
<path d="M197.196 48.8185V34.8071H196.974C196.633 35.5344 196.15 36.2559 195.525 36.9719C194.911 37.6764 194.11 38.2616 193.122 38.7275C192.144 39.1934 190.951 39.4264 189.542 39.4264C187.554 39.4264 185.752 38.915 184.139 37.8923C182.536 36.8582 181.264 35.3412 180.321 33.3412C179.389 31.3298 178.923 28.8639 178.923 25.9434C178.923 22.9434 179.406 20.4491 180.372 18.4605C181.338 16.4605 182.622 14.9662 184.224 13.9775C185.838 12.9775 187.605 12.4775 189.525 12.4775C190.991 12.4775 192.213 12.7275 193.19 13.2275C194.179 13.7162 194.974 14.3298 195.576 15.0684C196.19 15.7957 196.656 16.5116 196.974 17.2162H197.281V12.8184H204.44V48.8185H197.196ZM191.843 33.648C193.014 33.648 194.002 33.3298 194.809 32.6934C195.627 32.0457 196.252 31.1423 196.684 29.9832C197.127 28.8241 197.349 27.4662 197.349 25.9094C197.349 24.3525 197.133 23.0003 196.701 21.8525C196.269 20.7048 195.644 19.8184 194.826 19.1934C194.008 18.5684 193.014 18.2559 191.843 18.2559C190.65 18.2559 189.644 18.5798 188.826 19.2275C188.008 19.8753 187.389 20.773 186.968 21.9207C186.548 23.0684 186.338 24.398 186.338 25.9094C186.338 27.4321 186.548 28.7787 186.968 29.9491C187.4 31.1082 188.019 32.0173 188.826 32.6764C189.644 33.3241 190.65 33.648 191.843 33.648Z" fill="#242424"/>
<path d="M169.216 39.0001V12.8183H176.477V39.0001H169.216ZM172.864 9.44327C171.784 9.44327 170.858 9.08532 170.085 8.36941C169.324 7.64213 168.943 6.77282 168.943 5.76145C168.943 4.76145 169.324 3.9035 170.085 3.18759C170.858 2.46032 171.784 2.09668 172.864 2.09668C173.943 2.09668 174.864 2.46032 175.625 3.18759C176.398 3.9035 176.784 4.76145 176.784 5.76145C176.784 6.77282 176.398 7.64213 175.625 8.36941C174.864 9.08532 173.943 9.44327 172.864 9.44327Z" fill="#242424"/>
<path d="M151.976 39.0002V12.8184H159.015V17.3865H159.288C159.765 15.7615 160.566 14.5343 161.691 13.7047C162.816 12.8638 164.112 12.4434 165.578 12.4434C165.941 12.4434 166.334 12.4661 166.754 12.5115C167.174 12.557 167.544 12.6195 167.862 12.699V19.1422C167.521 19.0399 167.049 18.949 166.447 18.8695C165.845 18.79 165.294 18.7502 164.794 18.7502C163.726 18.7502 162.771 18.9831 161.93 19.449C161.101 19.9036 160.441 20.54 159.953 21.3581C159.476 22.1763 159.237 23.1195 159.237 24.1877V39.0002H151.976Z" fill="#242424"/>
<path d="M136.768 39.5116C134.12 39.5116 131.831 38.9491 129.899 37.8241C127.978 36.6878 126.495 35.1082 125.45 33.0855C124.405 31.0514 123.882 28.6934 123.882 26.0116C123.882 23.3071 124.405 20.9434 125.45 18.9207C126.495 16.8866 127.978 15.3071 129.899 14.1821C131.831 13.0457 134.12 12.4775 136.768 12.4775C139.416 12.4775 141.7 13.0457 143.62 14.1821C145.552 15.3071 147.041 16.8866 148.086 18.9207C149.132 20.9434 149.655 23.3071 149.655 26.0116C149.655 28.6934 149.132 31.0514 148.086 33.0855C147.041 35.1082 145.552 36.6878 143.62 37.8241C141.7 38.9491 139.416 39.5116 136.768 39.5116ZM136.802 33.8866C138.007 33.8866 139.013 33.5457 139.819 32.8639C140.626 32.1707 141.234 31.2275 141.643 30.0344C142.064 28.8412 142.274 27.4832 142.274 25.9605C142.274 24.4378 142.064 23.0798 141.643 21.8866C141.234 20.6934 140.626 19.7503 139.819 19.0571C139.013 18.3639 138.007 18.0173 136.802 18.0173C135.586 18.0173 134.564 18.3639 133.734 19.0571C132.916 19.7503 132.297 20.6934 131.876 21.8866C131.467 23.0798 131.263 24.4378 131.263 25.9605C131.263 27.4832 131.467 28.8412 131.876 30.0344C132.297 31.2275 132.916 32.1707 133.734 32.8639C134.564 33.5457 135.586 33.8866 136.802 33.8866Z" fill="#242424"/>
<path d="M122.889 12.8186V18.2732H107.122V12.8186H122.889ZM110.702 6.5459H117.963V30.955C117.963 31.6254 118.065 32.1482 118.27 32.5232C118.474 32.8868 118.758 33.1425 119.122 33.2902C119.497 33.4379 119.929 33.5118 120.418 33.5118C120.758 33.5118 121.099 33.4834 121.44 33.4266C121.781 33.3584 122.043 33.3073 122.224 33.2732L123.366 38.6766C123.003 38.7902 122.491 38.9209 121.832 39.0686C121.173 39.2277 120.372 39.3243 119.429 39.3584C117.679 39.4266 116.145 39.1936 114.827 38.6595C113.52 38.1254 112.503 37.2959 111.775 36.1709C111.048 35.0459 110.69 33.6254 110.702 31.9095V6.5459Z" fill="#242424"/>
<path d="M106.194 20.2844L99.5464 20.6934C99.4328 20.1253 99.1885 19.6139 98.8135 19.1594C98.4385 18.6934 97.9442 18.3241 97.3305 18.0514C96.7283 17.7673 96.0067 17.6253 95.1657 17.6253C94.0407 17.6253 93.0919 17.8639 92.3192 18.3412C91.5464 18.8071 91.1601 19.4321 91.1601 20.2162C91.1601 20.8412 91.4101 21.3696 91.9101 21.8014C92.4101 22.2332 93.268 22.5798 94.4839 22.8412L99.2226 23.7957C101.768 24.3184 103.666 25.1594 104.916 26.3184C106.166 27.4775 106.791 29.0003 106.791 30.8866C106.791 32.6025 106.285 34.1082 105.274 35.4037C104.274 36.6991 102.899 37.7105 101.149 38.4378C99.4101 39.1537 97.4044 39.5116 95.1317 39.5116C91.6658 39.5116 88.9044 38.79 86.8476 37.3469C84.8021 35.8923 83.6032 33.915 83.251 31.415L90.393 31.04C90.6089 32.0969 91.1317 32.9037 91.9612 33.4605C92.7908 34.0059 93.8533 34.2787 95.1487 34.2787C96.4214 34.2787 97.4442 34.0344 98.2169 33.5457C99.001 33.0457 99.3987 32.4037 99.4101 31.6196C99.3987 30.9605 99.1203 30.4207 98.5748 30.0003C98.0294 29.5684 97.1885 29.2389 96.0521 29.0116L91.518 28.1082C88.9612 27.5969 87.0578 26.7105 85.8078 25.4491C84.5692 24.1878 83.9498 22.5798 83.9498 20.6253C83.9498 18.9434 84.4044 17.4946 85.3135 16.2787C86.2339 15.0628 87.5237 14.1253 89.1828 13.4662C90.8533 12.8071 92.8078 12.4775 95.0464 12.4775C98.3533 12.4775 100.956 13.1764 102.853 14.5741C104.762 15.9719 105.876 17.8753 106.194 20.2844Z" fill="#242424"/>
<path d="M73.7317 39.0001V12.8183H80.9931V39.0001H73.7317ZM77.3794 9.44327C76.2999 9.44327 75.3738 9.08532 74.601 8.36941C73.8397 7.64213 73.459 6.77282 73.459 5.76145C73.459 4.76145 73.8397 3.9035 74.601 3.18759C75.3738 2.46032 76.2999 2.09668 77.3794 2.09668C78.459 2.09668 79.3794 2.46032 80.1408 3.18759C80.9135 3.9035 81.2999 4.76145 81.2999 5.76145C81.2999 6.77282 80.9135 7.64213 80.1408 8.36941C79.3794 9.08532 78.459 9.44327 77.3794 9.44327Z" fill="#242424"/>
<path d="M49.0342 38.9999V4.09082H56.4149V32.9147H71.3808V38.9999H49.0342Z" fill="#242424"/>
<circle cx="6.5" cy="6.5" r="6.5" fill="#242424"/>
<circle cx="22.5" cy="6.5" r="6.5" fill="#242424"/>
<circle cx="6.5" cy="22.5" r="6.5" fill="#242424"/>
<circle cx="22.5" cy="22.5" r="6.5" fill="#242424"/>
<circle cx="6.5" cy="38.5" r="6.5" fill="#242424"/>
<circle cx="22.5" cy="38.5" r="6.5" fill="#242424"/>
</svg>
