<svg width="962" height="224" viewBox="0 0 962 224" fill="none" xmlns="http://www.w3.org/2000/svg">
<path fill-rule="evenodd" clip-rule="evenodd" d="M0.900622 161.569C1.9985 164.544 4.61195 167.173 9.83885 172.431C15.0658 177.689 17.6792 180.318 20.6473 181.434C23.9217 182.664 27.5297 182.675 30.8114 181.464C33.7861 180.366 36.4152 177.753 41.6734 172.526L126.566 88.1377L94.8017 56.2331L9.93379 140.596C4.67562 145.823 2.04654 148.437 0.930936 151.405C-0.299793 154.679 -0.310554 158.287 0.900622 161.569ZM97.7479 53.3044L129.513 85.2089L151.492 63.3599C156.751 58.133 159.38 55.5195 160.495 52.5514C161.726 49.277 161.737 45.669 160.526 42.3873C159.428 39.4126 156.814 36.7835 151.587 31.5253C146.36 26.2672 143.747 23.6381 140.779 22.5225C137.504 21.2918 133.896 21.281 130.615 22.4922C127.64 23.5901 125.011 26.2035 119.753 31.4304L97.7479 53.3044Z" fill="url(#paint0_linear_1030_11558)"/>
<path fill-rule="evenodd" clip-rule="evenodd" d="M58.7213 36.5065C58.7348 40.4454 61.9388 43.6276 65.8777 43.6141C69.8166 43.6006 72.9988 40.3965 72.9853 36.4576L72.9582 28.564H79.1653C83.1043 28.564 86.2974 25.3708 86.2974 21.4319C86.2974 17.493 83.1043 14.2998 79.1653 14.2998H72.9093L72.8881 8.1076C72.8746 4.1687 69.6705 0.986538 65.7316 1.00004C61.7927 1.01355 58.6105 4.21761 58.624 8.15651L58.6451 14.2998L50.8152 14.2999C46.8762 14.2999 43.6831 17.493 43.6831 21.4319C43.6831 25.3708 46.8762 28.564 50.8152 28.564L58.694 28.564L58.7213 36.5065Z" fill="url(#paint1_linear_1030_11558)"/>
<path fill-rule="evenodd" clip-rule="evenodd" d="M151.166 125.971C151.178 129.335 153.915 132.054 157.279 132.042C160.644 132.03 163.362 129.294 163.351 125.929L163.327 119.186H168.635C171.999 119.186 174.727 116.458 174.727 113.094C174.727 109.729 171.999 107.002 168.635 107.002H163.286L163.268 101.713C163.256 98.3483 160.519 95.6301 157.155 95.6416C153.79 95.6532 151.072 98.39 151.083 101.755L151.101 107.002L144.418 107.002C141.054 107.002 138.326 109.729 138.326 113.094C138.326 116.458 141.054 119.186 144.418 119.186H151.143L151.166 125.971Z" fill="url(#paint2_linear_1030_11558)"/>
<path d="M88.8 167.703C86.7539 166.215 86.9252 163.079 89.096 161.78C98.701 156.031 104.34 150.391 110.414 140.945C111.78 138.822 114.913 138.771 116.331 140.859C122.876 150.504 128.34 156.078 136.827 162.07C138.928 163.554 138.792 166.762 136.582 168.076C126.968 173.794 121.451 179.28 115.454 188.721C114.086 190.874 110.91 190.922 109.482 188.809C103.308 179.671 97.7197 174.188 88.8 167.703Z" fill="url(#paint3_linear_1030_11558)"/>
<path d="M16.6397 82.7586C15.4691 81.9075 15.5671 80.113 16.809 79.3698C22.3043 76.0812 25.5307 72.854 29.0058 67.45C29.7869 66.2353 31.5796 66.206 32.3905 67.4009C36.1354 72.9188 39.2615 76.1081 44.1169 79.5362C45.3188 80.3847 45.2411 82.2201 43.9766 82.9722C38.4766 86.2435 35.3201 89.3822 31.8891 94.7836C31.1066 96.0155 29.2894 96.0429 28.4723 94.8337C24.9399 89.6056 21.7428 86.4689 16.6397 82.7586Z" fill="url(#paint4_linear_1030_11558)"/>
<path d="M870.281 170.856L870.284 170.857C879.574 176.073 890.64 178.67 903.461 178.67C913.735 178.67 922.813 177.102 930.686 173.953L930.688 173.952C938.607 170.752 945.078 166.297 950.087 160.581C952.582 157.736 954.662 154.652 956.325 151.329C957.776 148.429 957.326 145.426 955.713 143.113C954.105 140.808 951.347 139.186 948.161 138.975L935.254 138.124C930.626 137.818 926.63 140.784 923.75 144.175C923.303 144.703 922.828 145.205 922.326 145.683C920.122 147.782 917.469 149.36 914.358 150.415C911.242 151.471 907.799 152.003 904.026 152.003C898.339 152.003 893.451 150.807 889.343 148.437C885.233 146.066 882.043 142.695 879.772 138.311C877.606 134.03 876.489 128.951 876.438 123.057H950.921C956.413 123.057 960.865 118.605 960.865 113.114C960.865 102.521 959.379 93.2576 956.393 85.3326C953.412 77.364 949.232 70.735 943.846 65.4582C938.521 60.1878 932.272 56.2486 925.104 53.6416C917.995 50.9827 910.321 49.6556 902.088 49.6556C889.852 49.6556 879.16 52.3637 870.031 57.7975L870.03 57.7982C860.961 63.2288 853.928 70.8061 848.937 80.5182C843.944 90.2324 841.456 101.506 841.456 114.324C841.456 127.463 843.943 138.872 848.937 148.535L848.938 148.536C853.932 158.144 861.048 165.587 870.281 170.856ZM917.998 100.748H876.497C876.764 96.5751 877.88 92.7638 879.842 89.3072L879.844 89.3047C882.061 85.3457 885.119 82.2079 889.026 79.885L889.028 79.884C892.977 77.5142 897.514 76.3231 902.653 76.3231C907.582 76.3231 911.878 77.4088 915.557 79.5639L915.557 79.5639L915.565 79.568C919.306 81.6756 922.226 84.5963 924.334 88.3372C924.925 89.3872 925.434 90.4808 925.86 91.6185C926.754 94.0081 926.114 96.266 924.589 97.95C923.054 99.645 920.625 100.748 917.998 100.748Z" fill="url(#paint5_linear_1030_11558)" stroke="url(#paint6_linear_1030_11558)"/>
<path d="M800.167 31.0648L800.167 31.0648C796.468 27.5309 794.604 23.2856 794.604 18.3538C794.604 13.4738 796.469 9.28139 800.17 5.80169L800.167 31.0648ZM800.167 31.0648L800.173 31.07M800.167 31.0648L800.173 31.07M800.173 31.07C803.927 34.548 808.434 36.2883 813.669 36.2883C818.904 36.2883 823.386 34.5478 827.087 31.0675L827.087 31.0673M800.173 31.07L827.087 31.0673M827.087 31.0673C830.841 27.5342 832.733 23.2882 832.733 18.3538C832.733 13.4723 830.841 9.28008 827.087 5.80162C823.387 2.26818 818.905 0.5 813.669 0.5C808.432 0.5 803.923 2.26882 800.17 5.80153L827.087 31.0673ZM795.896 165.748C795.896 171.547 800.597 176.248 806.396 176.248H820.781C826.58 176.248 831.281 171.547 831.281 165.748V61.7699C831.281 55.9709 826.58 51.2699 820.781 51.2699H806.396C800.597 51.2699 795.896 55.9709 795.896 61.7699V165.748Z" fill="url(#paint7_linear_1030_11558)" stroke="url(#paint8_linear_1030_11558)"/>
<path d="M705.514 62.1048L705.513 62.1054C702.795 65.3873 700.676 68.6302 699.161 71.8348C699.085 71.9955 698.927 72.0945 698.759 72.0945C698.52 72.0945 698.327 71.9011 698.327 71.6626V61.7699C698.327 55.971 693.626 51.2699 687.827 51.2699H673.926C668.127 51.2699 663.426 55.9709 663.426 61.7699V212.241C663.426 218.039 668.127 222.741 673.926 222.741H688.311C694.11 222.741 698.811 218.04 698.811 212.241V156.531C698.811 156.454 698.873 156.393 698.949 156.393C699.002 156.393 699.054 156.424 699.079 156.478C700.655 159.845 702.886 163.176 705.764 166.472L705.766 166.475C708.776 169.868 712.627 172.678 717.306 174.908L717.308 174.909C722.073 177.155 727.827 178.266 734.552 178.266C744.06 178.266 752.656 175.82 760.327 170.924L760.328 170.923C768.06 165.968 774.145 158.705 778.592 149.162C783.097 139.554 785.338 127.801 785.338 113.921C785.338 99.6651 783.043 87.7735 778.427 78.2689C773.819 68.7279 767.652 61.5727 759.917 56.833C752.197 52.0488 743.765 49.6556 734.633 49.6556C727.638 49.6556 721.744 50.8482 716.974 53.2604C712.293 55.6008 708.469 58.5473 705.514 62.1048ZM746.19 132.716L746.189 132.718C744.224 138.135 741.34 142.358 737.549 145.413C733.775 148.4 729.154 149.904 723.656 149.904C718.21 149.904 713.614 148.426 709.839 145.491C706.049 142.49 703.139 138.294 701.12 132.876C699.101 127.455 698.085 121.086 698.085 113.759C698.085 106.432 699.101 100.091 701.12 94.7251C703.138 89.36 706.021 85.2461 709.755 82.3537C713.529 79.4711 718.153 78.0181 723.656 78.0181C729.21 78.0181 733.858 79.5235 737.632 82.5109C741.422 85.5116 744.306 89.6806 746.271 95.0439C748.237 100.412 749.227 106.648 749.227 113.759C749.227 120.923 748.211 127.239 746.19 132.716Z" fill="url(#paint9_linear_1030_11558)" stroke="url(#paint10_linear_1030_11558)"/>
<path d="M573.043 62.1048L573.043 62.1054C570.325 65.3873 568.205 68.6302 566.69 71.8348C566.614 71.9955 566.456 72.0945 566.288 72.0945C566.05 72.0945 565.856 71.9011 565.856 71.6626V61.7699C565.856 55.971 561.155 51.2699 555.356 51.2699H541.456C535.657 51.2699 530.956 55.9709 530.956 61.7699V212.241C530.956 218.039 535.657 222.741 541.456 222.741H555.841C561.64 222.741 566.341 218.04 566.341 212.241V156.531C566.341 156.454 566.403 156.393 566.479 156.393C566.532 156.393 566.584 156.424 566.609 156.478C568.185 159.845 570.416 163.176 573.293 166.472L573.296 166.475C576.306 169.868 580.157 172.678 584.836 174.908L584.838 174.909C589.602 177.155 595.356 178.266 602.082 178.266C611.589 178.266 620.186 175.82 627.857 170.924L627.858 170.923C635.59 165.968 641.675 158.705 646.121 149.162C650.627 139.554 652.867 127.801 652.867 113.921C652.867 99.6651 650.573 87.7735 645.957 78.2689C641.349 68.7279 635.182 61.5727 627.447 56.833C619.726 52.0488 611.295 49.6556 602.163 49.6556C595.168 49.6556 589.274 50.8482 584.504 53.2604C579.823 55.6008 575.999 58.5473 573.043 62.1048ZM613.72 132.716L613.719 132.718C611.754 138.135 608.87 142.358 605.079 145.413C601.305 148.4 596.684 149.904 591.185 149.904C585.74 149.904 581.144 148.426 577.369 145.491C573.579 142.49 570.669 138.294 568.65 132.876C566.631 127.455 565.614 121.086 565.614 113.759C565.614 106.432 566.631 100.091 568.649 94.7251C570.668 89.36 573.551 85.2461 577.284 82.3537C581.059 79.4711 585.682 78.0181 591.185 78.0181C596.74 78.0181 601.388 79.5235 605.162 82.5109C608.952 85.5116 611.836 89.6806 613.8 95.0439C615.767 100.412 616.756 106.648 616.756 113.759C616.756 120.923 615.74 127.239 613.72 132.716Z" fill="url(#paint11_linear_1030_11558)" stroke="url(#paint12_linear_1030_11558)"/>
<path d="M483.417 52.0925C477.078 50.4674 470.445 49.6556 463.518 49.6556C453.568 49.6556 444.785 51.1698 437.182 54.2111C429.635 57.1973 423.458 61.493 418.665 67.103C416.322 69.8191 414.356 72.783 412.768 75.9941C411.342 78.8775 411.783 81.8648 413.373 84.1793C414.957 86.4852 417.679 88.1261 420.835 88.3824L433.138 89.3816C438.131 89.7872 442.433 86.3548 445.59 82.7686C446.539 81.6914 447.635 80.6941 448.882 79.7774L448.886 79.7745C452.432 77.1146 457.239 75.7581 463.357 75.7581C469.147 75.7581 473.533 77.1392 476.586 79.8304L476.59 79.8331C479.687 82.5176 481.26 86.3222 481.26 91.3204V91.8047C481.26 94.2943 480.332 96.1212 478.493 97.3633C476.596 98.6457 473.483 99.6542 469.093 100.35C464.691 100.995 458.889 101.693 451.684 102.446C445.526 103.04 439.635 104.067 434.012 105.527L434.011 105.527C428.422 106.992 423.421 109.165 419.013 112.049C414.583 114.948 411.083 118.777 408.515 123.53C405.936 128.303 404.661 134.175 404.661 141.122C404.661 149.373 406.453 156.307 410.069 161.895L410.072 161.9C413.731 167.416 418.702 171.593 424.973 174.428L424.976 174.43L483.293 52.5771M483.417 52.0925C483.417 52.0926 483.417 52.0927 483.418 52.0928L483.293 52.5771M483.417 52.0925C483.417 52.0925 483.417 52.0925 483.417 52.0925L483.293 52.5771M483.417 52.0925C489.818 53.72 495.497 56.2451 500.447 59.6721M483.293 52.5771C489.643 54.1914 495.266 56.6936 500.163 60.0836M500.447 59.6721C500.446 59.6717 500.446 59.6714 500.445 59.6711L500.163 60.0836M500.447 59.6721C500.447 59.6722 500.447 59.6724 500.448 59.6725L500.163 60.0836M500.447 59.6721L500.163 60.0836M512.307 72.9218C512.307 72.9217 512.307 72.9217 512.306 72.9216L511.867 73.1595L512.307 72.9235C512.307 72.9229 512.307 72.9223 512.307 72.9218ZM477.704 120.696L477.704 120.696L477.713 120.693C478.551 120.43 479.509 120.6 480.262 121.079C481.013 121.556 481.502 122.3 481.502 123.137V131.436C481.502 135.705 480.423 139.512 478.272 142.87C476.116 146.235 473.143 148.922 469.341 150.929C465.549 152.877 461.164 153.859 456.173 153.859C450.979 153.859 446.729 152.668 443.389 150.321C440.146 147.951 438.512 144.533 438.512 139.992C438.512 136.853 439.321 134.276 440.91 132.226L440.913 132.222C442.52 130.097 444.785 128.397 447.734 127.133C450.699 125.863 454.18 124.931 458.182 124.343C460.065 124.075 462.162 123.779 464.475 123.456L464.475 123.456L464.486 123.454C466.804 123.077 469.122 122.673 471.439 122.242L471.439 122.242L471.45 122.239C473.774 121.753 475.859 121.239 477.704 120.696Z" fill="url(#paint13_linear_1030_11558)" stroke="url(#paint14_linear_1030_11558)"/>
<path d="M225 9.94373C219.201 9.94373 214.5 14.6447 214.5 20.4437V165.749C214.5 171.548 219.201 176.249 225 176.249H238.9C244.699 176.249 249.4 171.548 249.4 165.749V68.5695C249.4 68.3939 249.543 68.2515 249.718 68.2515C249.848 68.2515 249.965 68.3308 250.014 68.4516L290.076 168.833C291.668 172.824 295.531 175.441 299.828 175.441H309.37C313.661 175.441 317.521 172.83 319.117 168.846L359.173 68.8551C359.222 68.7343 359.339 68.6551 359.469 68.6551C359.645 68.6551 359.787 68.7977 359.787 68.9735V165.749C359.787 171.548 364.488 176.249 370.287 176.249H384.188C389.987 176.249 394.688 171.548 394.688 165.749V20.4437C394.688 14.6447 389.987 9.94373 384.188 9.94373H357.794C353.533 9.94373 349.695 12.5188 348.079 16.4615L305.467 120.422C305.322 120.776 304.977 121.008 304.594 121.008C304.211 121.008 303.866 120.776 303.721 120.422L261.109 16.4615C259.493 12.5188 255.654 9.94373 251.393 9.94373H225Z" fill="url(#paint15_linear_1030_11558)" stroke="url(#paint16_linear_1030_11558)"/>
<defs>
<linearGradient id="paint0_linear_1030_11558" x1="80.7131" y1="21.5916" x2="80.7131" y2="182.365" gradientUnits="userSpaceOnUse">
<stop stop-color="#FF78E9"/>
<stop offset="1" stop-color="#4997CF"/>
</linearGradient>
<linearGradient id="paint1_linear_1030_11558" x1="64.9902" y1="1" x2="64.9902" y2="43.6141" gradientUnits="userSpaceOnUse">
<stop stop-color="#FF78E9"/>
<stop offset="1" stop-color="#4997CF"/>
</linearGradient>
<linearGradient id="paint2_linear_1030_11558" x1="156.526" y1="95.6416" x2="156.526" y2="132.042" gradientUnits="userSpaceOnUse">
<stop stop-color="#FF78E9"/>
<stop offset="1" stop-color="#4997CF"/>
</linearGradient>
<linearGradient id="paint3_linear_1030_11558" x1="112.843" y1="139.322" x2="112.843" y2="190.365" gradientUnits="userSpaceOnUse">
<stop stop-color="#FF78E9"/>
<stop offset="1" stop-color="#4997CF"/>
</linearGradient>
<linearGradient id="paint4_linear_1030_11558" x1="30.3952" y1="66.5216" x2="30.3952" y2="95.7243" gradientUnits="userSpaceOnUse">
<stop stop-color="#FF78E9"/>
<stop offset="1" stop-color="#4997CF"/>
</linearGradient>
<linearGradient id="paint5_linear_1030_11558" x1="901.16" y1="50.1556" x2="901.16" y2="178.17" gradientUnits="userSpaceOnUse">
<stop stop-color="#FF78E9"/>
<stop offset="1" stop-color="#4997CF"/>
</linearGradient>
<linearGradient id="paint6_linear_1030_11558" x1="901.16" y1="50.1556" x2="901.16" y2="178.17" gradientUnits="userSpaceOnUse">
<stop stop-color="#FF78E9"/>
<stop offset="1" stop-color="#4997CF"/>
</linearGradient>
<linearGradient id="paint7_linear_1030_11558" x1="813.669" y1="1" x2="813.669" y2="175.748" gradientUnits="userSpaceOnUse">
<stop stop-color="#FF78E9"/>
<stop offset="1" stop-color="#4997CF"/>
</linearGradient>
<linearGradient id="paint8_linear_1030_11558" x1="813.669" y1="1" x2="813.669" y2="175.748" gradientUnits="userSpaceOnUse">
<stop stop-color="#FF78E9"/>
<stop offset="1" stop-color="#4997CF"/>
</linearGradient>
<linearGradient id="paint9_linear_1030_11558" x1="724.382" y1="50.1556" x2="724.382" y2="222.241" gradientUnits="userSpaceOnUse">
<stop stop-color="#FF78E9"/>
<stop offset="1" stop-color="#4997CF"/>
</linearGradient>
<linearGradient id="paint10_linear_1030_11558" x1="724.382" y1="50.1556" x2="724.382" y2="222.241" gradientUnits="userSpaceOnUse">
<stop stop-color="#FF78E9"/>
<stop offset="1" stop-color="#4997CF"/>
</linearGradient>
<linearGradient id="paint11_linear_1030_11558" x1="591.912" y1="50.1556" x2="591.912" y2="222.241" gradientUnits="userSpaceOnUse">
<stop stop-color="#FF78E9"/>
<stop offset="1" stop-color="#4997CF"/>
</linearGradient>
<linearGradient id="paint12_linear_1030_11558" x1="591.912" y1="50.1556" x2="591.912" y2="222.241" gradientUnits="userSpaceOnUse">
<stop stop-color="#FF78E9"/>
<stop offset="1" stop-color="#4997CF"/>
</linearGradient>
<linearGradient id="paint13_linear_1030_11558" x1="460.653" y1="50.1556" x2="460.653" y2="178.089" gradientUnits="userSpaceOnUse">
<stop stop-color="#FF78E9"/>
<stop offset="1" stop-color="#4997CF"/>
</linearGradient>
<linearGradient id="paint14_linear_1030_11558" x1="460.653" y1="50.1556" x2="460.653" y2="178.089" gradientUnits="userSpaceOnUse">
<stop stop-color="#FF78E9"/>
<stop offset="1" stop-color="#4997CF"/>
</linearGradient>
<linearGradient id="paint15_linear_1030_11558" x1="304.594" y1="10.4437" x2="304.594" y2="175.749" gradientUnits="userSpaceOnUse">
<stop stop-color="#FF78E9"/>
<stop offset="1" stop-color="#4997CF"/>
</linearGradient>
<linearGradient id="paint16_linear_1030_11558" x1="304.594" y1="10.4437" x2="304.594" y2="175.749" gradientUnits="userSpaceOnUse">
<stop stop-color="#FF78E9"/>
<stop offset="1" stop-color="#4997CF"/>
</linearGradient>
</defs>
</svg>
