<svg width="221" height="41" viewBox="0 0 221 41" fill="none" xmlns="http://www.w3.org/2000/svg">
<path d="M199.646 38.1933C198.542 38.1933 197.646 37.2979 197.646 36.1933V34.1536C197.646 33.6907 197.807 33.2421 198.101 32.8843L209.754 18.6939C209.773 18.6715 209.783 18.6433 209.783 18.6143V18.6143C209.783 18.5449 209.727 18.4887 209.657 18.4887H200.073C198.968 18.4887 198.073 17.5933 198.073 16.4887V14.0115C198.073 12.9069 198.968 12.0115 200.073 12.0115H217.72C218.825 12.0115 219.72 12.9069 219.72 14.0115V16.5357C219.72 16.9838 219.57 17.4189 219.293 17.7713L208.497 31.5111C208.48 31.5334 208.47 31.561 208.47 31.5894V31.5894C208.47 31.6593 208.527 31.716 208.597 31.716H218.129C219.234 31.716 220.129 32.6115 220.129 33.716V36.1933C220.129 37.2979 219.234 38.1933 218.129 38.1933H199.646Z" fill="url(#paint0_linear_1013_10292)"/>
<path d="M174.109 38.1933C173.004 38.1933 172.109 37.2979 172.109 36.1933V34.1536C172.109 33.6907 172.269 33.2421 172.563 32.8843L184.217 18.6939C184.235 18.6715 184.245 18.6433 184.245 18.6143V18.6143C184.245 18.5449 184.189 18.4887 184.12 18.4887H174.535C173.43 18.4887 172.535 17.5933 172.535 16.4887V14.0115C172.535 12.9069 173.43 12.0115 174.535 12.0115H192.183C193.287 12.0115 194.183 12.9069 194.183 14.0115V16.5357C194.183 16.9838 194.032 17.4189 193.755 17.7713L182.96 31.5111C182.942 31.5334 182.933 31.561 182.933 31.5894V31.5894C182.933 31.6593 182.989 31.716 183.059 31.716H192.592C193.696 31.716 194.592 32.6115 194.592 33.716V36.1933C194.592 37.2979 193.696 38.1933 192.592 38.1933H174.109Z" fill="url(#paint1_linear_1013_10292)"/>
<path d="M162.8 38.1932C161.695 38.1932 160.8 37.2978 160.8 36.1932V14.0114C160.8 12.9068 161.695 12.0114 162.8 12.0114H167.135C168.24 12.0114 169.135 12.9068 169.135 14.0114V36.1932C169.135 37.2978 168.24 38.1932 167.135 38.1932H162.8ZM164.976 8.96023C163.806 8.96023 162.8 8.57387 161.959 7.80114C161.118 7.01705 160.698 6.07386 160.698 4.97159C160.698 3.88068 161.118 2.94886 161.959 2.17614C162.8 1.39205 163.806 1 164.976 1C166.158 1 167.164 1.39205 167.993 2.17614C168.834 2.94886 169.255 3.88068 169.255 4.97159C169.255 6.07386 168.834 7.01705 167.993 7.80114C167.164 8.57387 166.158 8.96023 164.976 8.96023Z" fill="url(#paint2_linear_1013_10292)"/>
<path d="M128.247 38.1933C127.337 38.1933 126.541 37.5784 126.312 36.6973L120.535 14.5155C120.205 13.2485 121.162 12.0115 122.471 12.0115H126.63C127.575 12.0115 128.392 12.6741 128.587 13.5998L131.758 28.675C131.771 28.7386 131.828 28.7842 131.893 28.7842V28.7842C131.957 28.7842 132.013 28.7397 132.027 28.6769L135.435 13.5713C135.641 12.6593 136.451 12.0115 137.386 12.0115H142.364C143.294 12.0115 144.101 12.6518 144.312 13.557L147.813 28.5584C147.828 28.6208 147.883 28.6649 147.947 28.6649V28.6649C148.013 28.6649 148.069 28.6189 148.082 28.5549L151.157 13.6085C151.348 12.6787 152.167 12.0115 153.116 12.0115H157.266C158.575 12.0115 159.532 13.2494 159.201 14.5167L153.41 36.6985C153.18 37.579 152.385 38.1933 151.475 38.1933H145.639C144.734 38.1933 143.942 37.5855 143.707 36.7113L140.052 23.0776C140.029 22.995 139.955 22.9376 139.869 22.9376V22.9376C139.784 22.9376 139.709 22.995 139.687 23.0776L136.031 36.7113C135.796 37.5855 135.004 38.1933 134.099 38.1933H128.247Z" fill="url(#paint3_linear_1013_10292)"/>
<path d="M79.9126 5.28418C79.9126 4.17961 80.808 3.28418 81.9126 3.28418H89.02C89.8315 3.28418 90.5625 3.77452 90.8704 4.52532L99.1475 24.7086C99.1944 24.823 99.3059 24.8978 99.4296 24.8978V24.8978C99.5534 24.8978 99.6649 24.823 99.7118 24.7086L107.989 4.52532C108.297 3.77452 109.028 3.28418 109.839 3.28418H116.947C118.051 3.28418 118.947 4.17961 118.947 5.28418V36.1933C118.947 37.2978 118.051 38.1933 116.947 38.1933H112.731C111.626 38.1933 110.731 37.2978 110.731 36.1933V16.9226C110.731 16.8273 110.654 16.7501 110.558 16.7501V16.7501C110.488 16.7501 110.424 16.7933 110.398 16.8592L102.555 36.7067C102.253 37.4701 101.515 37.9717 100.695 37.9717H98.1676C97.3453 37.9717 96.6069 37.4684 96.3062 36.7032L88.4612 16.7401C88.4353 16.6741 88.3717 16.6308 88.3008 16.6308V16.6308C88.2057 16.6308 88.1285 16.7079 88.1285 16.8031V36.1933C88.1285 37.2978 87.2331 38.1933 86.1285 38.1933H81.9126C80.808 38.1933 79.9126 37.2978 79.9126 36.1933V5.28418Z" fill="url(#paint4_linear_1013_10292)"/>
<path d="M53 38.1933C51.8954 38.1933 51 37.2978 51 36.1933V5.28418C51 4.17961 51.8954 3.28418 53 3.28418H65.4205C68.0341 3.28418 70.2898 3.79554 72.1875 4.81827C74.0966 5.82963 75.5682 7.24441 76.6023 9.06259C77.6364 10.8694 78.1534 12.9717 78.1534 15.3694C78.1534 17.7785 77.625 19.8865 76.5682 21.6933C75.5227 23.4887 74.0284 24.8808 72.0852 25.8694C70.142 26.858 67.8352 27.3524 65.1648 27.3524H58.267C57.1625 27.3524 56.267 26.4569 56.267 25.3524V22.7046C56.267 21.6001 57.1625 20.7046 58.267 20.7046H63.5966C64.8693 20.7046 65.9318 20.483 66.7841 20.0399C67.6477 19.5967 68.3011 18.9774 68.7443 18.1819C69.1875 17.3751 69.4091 16.4376 69.4091 15.3694C69.4091 14.2899 69.1875 13.358 68.7443 12.574C68.3011 11.7785 67.6477 11.1649 66.7841 10.733C65.9205 10.3012 64.858 10.0853 63.5966 10.0853H61.4375C60.3329 10.0853 59.4375 10.9807 59.4375 12.0853V36.1933C59.4375 37.2978 58.5421 38.1933 57.4375 38.1933H53Z" fill="url(#paint5_linear_1013_10292)"/>
<path fill-rule="evenodd" clip-rule="evenodd" d="M2.08351 36.3027C0.976645 35.1892 0.42321 34.6324 0.190719 34.0025C-0.0657641 33.3076 -0.0634854 32.5435 0.197139 31.8501C0.433383 31.2216 0.990129 30.6681 2.10362 29.5613L25.3593 6.44387C26.4728 5.337 27.0296 4.78356 27.6595 4.55107C28.3544 4.29459 29.1185 4.29687 29.8119 4.55749C30.4404 4.79373 30.9939 5.35048 32.1007 6.46397C33.2076 7.57746 33.761 8.13421 33.9935 8.76414C34.25 9.45908 34.2477 10.2231 33.9871 10.9165C33.7509 11.5451 33.1941 12.0985 32.0806 13.2054L8.82492 36.3228C7.71143 37.4296 7.15468 37.9831 6.52475 38.2156C5.82981 38.4721 5.06575 38.4698 4.37235 38.2092C3.74382 37.9729 3.19039 37.4162 2.08353 36.3027L2.08351 36.3027ZM3.80443 33.4345C3.50407 33.1328 3.50514 32.6447 3.80683 32.3444L23.0732 13.1625C23.3749 12.8621 23.8629 12.8632 24.1633 13.1649L25.2429 14.2492C25.5432 14.5509 25.5422 15.039 25.2405 15.3393L5.97411 34.5212C5.67242 34.8216 5.18436 34.8205 4.884 34.5188L3.80443 33.4345ZM24.6301 11.5187C24.3284 11.8191 24.3274 12.3072 24.6277 12.6089L25.7777 13.7639C26.0781 14.0656 26.5662 14.0667 26.8678 13.7663L30.6819 9.96902C30.9835 9.66865 30.9846 9.18059 30.6843 8.8789L29.5343 7.72385C29.2339 7.42216 28.7458 7.42109 28.4442 7.72146L24.6301 11.5187Z" fill="url(#paint6_linear_1013_10292)"/>
<path fill-rule="evenodd" clip-rule="evenodd" d="M12.4347 7.51892C12.4376 8.35303 13.1161 9.0269 13.9502 9.02404C14.7843 9.02118 15.4582 8.34268 15.4553 7.50856L15.4496 5.83693H16.7643C17.5984 5.83693 18.2746 5.16074 18.2746 4.32662C18.2746 3.4925 17.5984 2.81631 16.7643 2.81631H15.4393L15.4348 1.50505C15.4319 0.670928 14.7534 -0.00293917 13.9193 -7.92362e-05C13.0852 0.0027807 12.4113 0.681284 12.4142 1.5154L12.4186 2.81631L10.7607 2.81631C9.92661 2.81631 9.25042 3.4925 9.25042 4.32662C9.25042 5.16074 9.92661 5.83693 10.7607 5.83693H12.429L12.4347 7.51892Z" fill="url(#paint7_linear_1013_10292)"/>
<path fill-rule="evenodd" clip-rule="evenodd" d="M32.0111 26.4641C32.0136 27.1766 32.5931 27.7522 33.3056 27.7498C34.0181 27.7474 34.5937 27.1678 34.5913 26.4553L34.5864 25.0273H35.7103C36.4228 25.0273 37.0003 24.4497 37.0003 23.7372C37.0003 23.0248 36.4228 22.4472 35.7103 22.4472H34.5775L34.5737 21.3272C34.5713 20.6147 33.9917 20.0391 33.2792 20.0415C32.5667 20.044 31.9911 20.6235 31.9935 21.336L31.9973 22.4472L30.5821 22.4472C29.8696 22.4472 29.292 23.0248 29.292 23.7372C29.292 24.4497 29.8696 25.0273 30.5821 25.0273H32.0062L32.0111 26.4641Z" fill="url(#paint8_linear_1013_10292)"/>
<path fill-rule="evenodd" clip-rule="evenodd" d="M18.867 34.0472C18.4073 34.3223 18.371 34.9865 18.8043 35.3016C20.6932 36.6749 21.8766 37.8359 23.184 39.771C23.4865 40.2186 24.1591 40.2084 24.4487 39.7525C25.7187 37.7532 26.887 36.5914 28.9228 35.3806C29.3908 35.1022 29.4196 34.4229 28.9747 34.1088C27.1775 32.8399 26.0204 31.6594 24.6343 29.6171C24.3341 29.1748 23.6706 29.1857 23.3815 29.6353C22.0952 31.6355 20.901 32.83 18.867 34.0472ZM23.9066 31.9316C23.1559 33.2065 22.58 33.7926 21.2776 34.4913C22.4833 35.3192 23.064 35.8716 23.8373 37.1203C24.5864 35.8285 25.1448 35.2661 26.4663 34.5606C25.3069 33.8081 24.7415 33.2465 23.9066 31.9316Z" fill="url(#paint9_linear_1013_10292)"/>
<path fill-rule="evenodd" clip-rule="evenodd" d="M3.55922 16.5958C3.29623 16.7532 3.27547 17.1332 3.52336 17.3134C4.60402 18.0991 5.28105 18.7634 6.02909 19.8705C6.20211 20.1265 6.58693 20.1207 6.75263 19.8599C7.47919 18.716 8.14763 18.0514 9.31234 17.3586C9.5801 17.1994 9.59656 16.8107 9.34205 16.631C8.31385 15.9051 7.65184 15.2297 6.85882 14.0612C6.68709 13.8082 6.30746 13.8144 6.14205 14.0716C5.40616 15.216 4.72291 15.8994 3.55922 16.5958ZM6.44216 15.3854C6.01265 16.1148 5.68315 16.4502 4.93806 16.8499C5.62784 17.3236 5.96008 17.6396 6.40251 18.354C6.83105 17.6149 7.15053 17.2932 7.90661 16.8895C7.24329 16.459 6.91979 16.1377 6.44216 15.3854Z" fill="url(#paint10_linear_1013_10292)"/>
<defs>
<linearGradient id="paint0_linear_1013_10292" x1="208.888" y1="12.0115" x2="208.888" y2="38.1933" gradientUnits="userSpaceOnUse">
<stop stop-color="#FF78E9"/>
<stop offset="1" stop-color="#4997CF"/>
</linearGradient>
<linearGradient id="paint1_linear_1013_10292" x1="183.35" y1="12.0115" x2="183.35" y2="38.1933" gradientUnits="userSpaceOnUse">
<stop stop-color="#FF78E9"/>
<stop offset="1" stop-color="#4997CF"/>
</linearGradient>
<linearGradient id="paint2_linear_1013_10292" x1="164.976" y1="1" x2="164.976" y2="38.1932" gradientUnits="userSpaceOnUse">
<stop stop-color="#FF78E9"/>
<stop offset="1" stop-color="#4997CF"/>
</linearGradient>
<linearGradient id="paint3_linear_1013_10292" x1="139.869" y1="12.0115" x2="139.869" y2="38.1933" gradientUnits="userSpaceOnUse">
<stop stop-color="#FF78E9"/>
<stop offset="1" stop-color="#4997CF"/>
</linearGradient>
<linearGradient id="paint4_linear_1013_10292" x1="99.4296" y1="3.28418" x2="99.4296" y2="38.1933" gradientUnits="userSpaceOnUse">
<stop stop-color="#FF78E9"/>
<stop offset="1" stop-color="#4997CF"/>
</linearGradient>
<linearGradient id="paint5_linear_1013_10292" x1="64.5767" y1="3.28418" x2="64.5767" y2="38.1933" gradientUnits="userSpaceOnUse">
<stop stop-color="#FF78E9"/>
<stop offset="1" stop-color="#4997CF"/>
</linearGradient>
<linearGradient id="paint6_linear_1013_10292" x1="17.0921" y1="4.36035" x2="17.0921" y2="38.4063" gradientUnits="userSpaceOnUse">
<stop stop-color="#FF78E9"/>
<stop offset="1" stop-color="#4997CF"/>
</linearGradient>
<linearGradient id="paint7_linear_1013_10292" x1="13.7626" y1="0" x2="13.7626" y2="9.02414" gradientUnits="userSpaceOnUse">
<stop stop-color="#FF78E9"/>
<stop offset="1" stop-color="#4997CF"/>
</linearGradient>
<linearGradient id="paint8_linear_1013_10292" x1="33.1462" y1="20.0416" x2="33.1462" y2="27.7499" gradientUnits="userSpaceOnUse">
<stop stop-color="#FF78E9"/>
<stop offset="1" stop-color="#4997CF"/>
</linearGradient>
<linearGradient id="paint9_linear_1013_10292" x1="23.896" y1="29.2915" x2="23.896" y2="40.1005" gradientUnits="userSpaceOnUse">
<stop stop-color="#FF78E9"/>
<stop offset="1" stop-color="#4997CF"/>
</linearGradient>
<linearGradient id="paint10_linear_1013_10292" x1="6.43618" y1="13.875" x2="6.43618" y2="20.0591" gradientUnits="userSpaceOnUse">
<stop stop-color="#FF78E9"/>
<stop offset="1" stop-color="#4997CF"/>
</linearGradient>
</defs>
</svg>
