<svg width="1141" height="222" viewBox="0 0 1141 222" fill="none" xmlns="http://www.w3.org/2000/svg">
<path fill-rule="evenodd" clip-rule="evenodd" d="M9.83873 171.431L9.83885 171.431C15.0658 176.689 17.6792 179.318 20.6473 180.434C23.9217 181.664 27.5297 181.675 30.8114 180.464C33.7861 179.366 36.4151 176.753 41.6732 171.526L41.6734 171.526L126.566 87.1377L94.8016 55.2332L9.93379 139.596C4.67562 144.823 2.04654 147.437 0.930936 150.405C-0.299793 153.679 -0.310554 157.287 0.900622 160.569C1.99849 163.543 4.61191 166.173 9.83873 171.431ZM97.7479 52.3044L129.513 84.2089L151.492 62.3599C156.751 57.133 159.38 54.5195 160.495 51.5514C161.726 48.277 161.737 44.669 160.525 41.3873C159.428 38.4126 156.814 35.7835 151.587 30.5253C146.36 25.2672 143.747 22.6381 140.779 21.5225C137.504 20.2918 133.896 20.281 130.615 21.4922C127.64 22.5901 125.011 25.2035 119.753 30.4304L97.7479 52.3044Z" fill="url(#paint0_linear_1015_10313)"/>
<path fill-rule="evenodd" clip-rule="evenodd" d="M58.7213 35.5065C58.7348 39.4454 61.9388 42.6276 65.8777 42.6141C69.8166 42.6006 72.9988 39.3965 72.9853 35.4576L72.9582 27.564H79.1653C83.1043 27.564 86.2974 24.3708 86.2974 20.4319C86.2974 16.493 83.1043 13.2998 79.1653 13.2998H72.9093L72.8881 7.1076C72.8746 3.1687 69.6705 -0.0134625 65.7316 4.28294e-05C61.7927 0.0135481 58.6105 3.21761 58.624 7.15651L58.6451 13.2998L50.8152 13.2999C46.8762 13.2999 43.6831 16.493 43.6831 20.4319C43.6831 24.3708 46.8762 27.564 50.8152 27.564L58.694 27.564L58.7213 35.5065Z" fill="url(#paint1_linear_1015_10313)"/>
<path fill-rule="evenodd" clip-rule="evenodd" d="M151.166 124.971C151.178 128.335 153.915 131.054 157.279 131.042C160.644 131.03 163.362 128.294 163.351 124.929L163.327 118.186H168.635C171.999 118.186 174.727 115.458 174.727 112.094C174.727 108.729 171.999 106.002 168.635 106.002H163.286L163.268 100.713C163.256 97.3483 160.519 94.6301 157.155 94.6416C153.79 94.6532 151.072 97.39 151.083 100.755L151.101 106.002L144.418 106.002C141.054 106.002 138.326 108.729 138.326 112.094C138.326 115.458 141.054 118.186 144.418 118.186H151.143L151.166 124.971Z" fill="url(#paint2_linear_1015_10313)"/>
<path d="M88.8 166.703C86.7539 165.215 86.9252 162.079 89.096 160.78C98.701 155.032 104.34 149.391 110.414 139.945C111.78 137.822 114.913 137.771 116.331 139.859C122.876 149.504 128.34 155.079 136.827 161.07C138.928 162.554 138.792 165.762 136.582 167.076C126.968 172.794 121.451 178.28 115.454 187.721C114.086 189.874 110.91 189.922 109.482 187.809C103.308 178.671 97.7196 173.188 88.8 166.703Z" fill="url(#paint3_linear_1015_10313)"/>
<path d="M16.6397 81.7586C15.4691 80.9075 15.5671 79.113 16.809 78.3698C22.3043 75.0812 25.5307 71.854 29.0058 66.45C29.7869 65.2353 31.5796 65.206 32.3905 66.4009C36.1354 71.9188 39.2615 75.1081 44.1169 78.5362C45.3188 79.3847 45.2411 81.2201 43.9766 81.9722C38.4766 85.2435 35.3201 88.3822 31.8891 93.7836C31.1066 95.0155 29.2894 95.0429 28.4723 93.8337C24.9399 88.6056 21.7428 85.4689 16.6397 81.7586Z" fill="url(#paint4_linear_1015_10313)"/>
<path d="M1044.9 222C1040.18 222 1035.72 221.624 1031.54 220.873C1030.71 220.736 1029.91 220.589 1029.14 220.433C1024.3 219.465 1021.86 214.421 1023.29 209.707L1026.62 198.758C1028.17 193.675 1033.59 191.097 1038.88 191.645C1039.23 191.682 1039.57 191.711 1039.91 191.735C1043.07 191.949 1045.78 191.44 1048.04 190.205C1050.35 189.025 1052.12 186.905 1053.35 183.846L1053.52 183.44C1054.4 181.316 1054.47 178.944 1053.72 176.77L1015.22 64.5078C1013.12 58.3775 1017.67 51.9994 1024.15 51.9994H1044.83C1049.13 51.9994 1052.9 54.9128 1053.97 59.0826L1074.76 139.595C1074.86 139.962 1075.19 140.219 1075.57 140.219V140.219C1075.95 140.219 1076.28 139.964 1076.37 139.598L1097.47 59.0514C1098.55 54.8969 1102.31 51.9994 1106.6 51.9994H1127.53C1134.01 51.9994 1138.57 58.3845 1136.46 64.5163L1094.16 187.469C1091.91 194.23 1088.71 200.186 1084.58 205.338C1080.5 210.543 1075.22 214.621 1068.72 217.573C1062.28 220.524 1054.34 222 1044.9 222Z" fill="url(#paint5_linear_1015_10313)"/>
<path d="M997.665 10.7869C1002.88 10.7869 1007.11 15.0153 1007.11 20.2313V166.191C1007.11 171.407 1002.88 175.636 997.665 175.636H977.193C971.976 175.636 967.748 171.407 967.748 166.191V20.2313C967.748 15.0153 971.976 10.7869 977.193 10.7869H997.665Z" fill="url(#paint6_linear_1015_10313)"/>
<path d="M946.899 51.9989C952.115 51.9989 956.344 56.2273 956.344 61.4433V71.5318C956.344 76.7478 952.115 80.9762 946.899 80.9762H887.791C882.575 80.9762 878.346 76.7478 878.346 71.5318V61.4433C878.346 56.2273 882.575 51.9989 887.791 51.9989H946.899ZM894.686 31.822C894.686 26.606 898.915 22.3776 904.131 22.3776H924.603C929.819 22.3776 934.047 26.606 934.047 31.822V136.758C934.047 139.172 934.423 141.131 935.174 142.634C935.979 144.083 937.133 145.129 938.635 145.773C940.138 146.363 941.935 146.658 944.028 146.658C945.531 146.658 947.114 146.524 948.777 146.256V146.256C950.895 145.859 953.009 147.205 953.451 149.314L956.911 165.82C957.861 170.353 955.138 174.82 950.629 175.877V175.877C947.248 176.682 943.196 177.192 938.474 177.406C929.244 177.836 921.329 176.763 914.729 174.187C908.182 171.557 903.165 167.479 899.677 161.952C896.242 156.425 894.579 149.476 894.686 141.104V31.822Z" fill="url(#paint7_linear_1015_10313)"/>
<path d="M843.081 222C837.865 222 833.637 217.771 833.637 212.555V156.08C833.637 155.811 833.419 155.593 833.15 155.593V155.593C832.957 155.593 832.782 155.708 832.703 155.885C831.048 159.585 828.729 163.057 825.749 166.299C822.69 169.626 818.853 172.309 814.238 174.348C809.677 176.387 804.284 177.407 798.059 177.407C788.937 177.407 780.646 175.046 773.187 170.324C765.728 165.601 759.772 158.518 755.318 149.073C750.864 139.629 748.637 127.904 748.637 113.898C748.637 99.3558 750.944 87.3892 755.559 77.9984C760.174 68.6076 766.211 61.6584 773.67 57.1508C781.183 52.6432 789.259 50.3894 797.898 50.3894C804.391 50.3894 809.945 51.5163 814.56 53.7701C819.175 55.9702 822.985 58.8143 825.99 62.3023C828.876 65.6523 831.094 69.126 832.644 72.7234C832.76 72.9923 833.023 73.1688 833.316 73.1688V73.1688C833.715 73.1688 834.039 72.8448 834.039 72.445V61.4437C834.039 56.2277 838.268 51.9993 843.484 51.9993H863.553C868.769 51.9993 872.998 56.2277 872.998 61.4437V212.555C872.998 217.771 868.769 222 863.553 222H843.081ZM811.743 146.739C816.519 146.739 820.597 145.398 823.978 142.715C827.359 139.978 829.961 136.141 831.786 131.204C833.61 126.267 834.522 120.472 834.522 113.818C834.522 107.056 833.61 101.234 831.786 96.3507C830.015 91.4675 827.412 87.7112 823.978 85.0818C820.597 82.4523 816.519 81.1376 811.743 81.1376C806.86 81.1376 802.728 82.4792 799.347 85.1622C795.966 87.8453 793.391 91.6285 791.62 96.5117C789.903 101.395 789.044 107.164 789.044 113.818C789.044 120.472 789.929 126.267 791.7 131.204C793.471 136.141 796.02 139.978 799.347 142.715C802.728 145.398 806.86 146.739 811.743 146.739Z" fill="url(#paint8_linear_1015_10313)"/>
<path d="M685.453 177.97C672.52 177.97 661.358 175.421 651.968 170.324C642.63 165.172 635.44 157.847 630.395 148.349C625.405 138.797 622.91 127.448 622.91 114.301C622.91 101.529 625.432 90.3674 630.476 80.8156C635.52 71.2102 642.63 63.7512 651.807 58.4387C660.983 53.0725 671.796 50.3894 684.245 50.3894C693.046 50.3894 701.095 51.7578 708.393 54.4945C715.691 57.2313 721.996 61.2827 727.309 66.6489C732.621 72.0151 736.753 78.6423 739.705 86.5306C742.656 94.3652 744.132 103.354 744.132 113.496V113.871C744.132 119.087 739.903 123.316 734.687 123.316H646.118C640.902 123.316 636.674 119.087 636.674 113.871V109.9C636.674 104.684 640.902 100.456 646.118 100.456H697.941C703.205 100.456 707.714 95.9548 705.523 91.1691C705.225 90.519 704.894 89.8851 704.529 89.2674C702.597 85.994 699.941 83.4451 696.56 81.6206C693.233 79.7424 689.397 78.8033 685.05 78.8033C680.65 78.8033 676.706 79.7961 673.218 81.7816C669.73 83.7134 666.966 86.3696 664.927 89.7503C662.888 93.0774 661.814 96.8605 661.707 101.1V124.362C661.707 129.406 662.7 133.833 664.685 137.643C666.671 141.4 669.488 144.324 673.137 146.417C676.786 148.51 681.133 149.556 686.177 149.556C689.665 149.556 692.831 149.073 695.675 148.108C698.519 147.142 700.961 145.72 703 143.841C703.399 143.474 703.778 143.091 704.137 142.691C706.842 139.683 710.307 136.998 714.35 137.115L732.706 137.646C738.498 137.814 742.856 143.188 740.512 148.488C738.808 152.342 736.58 155.891 733.829 159.135C728.784 165.091 722.157 169.733 713.947 173.06C705.737 176.334 696.239 177.97 685.453 177.97Z" fill="url(#paint9_linear_1015_10313)"/>
<path d="M574.579 61.4434C574.579 56.2273 578.807 51.9989 584.023 51.9989H604.495C609.711 51.9989 613.939 56.2273 613.939 61.4434V180.787C613.939 190.983 611.847 199.086 607.661 205.096C603.529 211.106 597.68 215.426 590.114 218.055C582.547 220.685 573.613 221.999 563.31 221.999C561.914 221.999 560.6 221.973 559.365 221.919V221.919C557.119 221.821 555.341 219.978 555.341 217.73V194.482C555.341 193.102 556.54 192.038 557.917 192.137V192.137C558.668 192.19 559.419 192.217 560.17 192.217C565.59 192.217 569.347 191.198 571.439 189.158C573.532 187.173 574.579 184.114 574.579 179.982V61.4434ZM594.219 37.5907C588.692 37.5907 583.943 35.7662 579.972 32.1172C576.001 28.4145 574.015 23.9606 574.015 18.7554C574.015 13.6039 576.001 9.20361 579.972 5.55461C583.943 1.85194 588.692 0.000610352 594.219 0.000610352C599.8 0.000610352 604.549 1.85194 608.466 5.55461C612.437 9.20361 614.422 13.6039 614.422 18.7554C614.422 23.9606 612.437 28.4145 608.466 32.1172C604.549 35.7662 599.8 37.5907 594.219 37.5907Z" fill="url(#paint10_linear_1015_10313)"/>
<path d="M503.287 177.97C490.3 177.97 479.139 175.314 469.802 170.002C460.518 164.635 453.354 157.176 448.31 147.625C443.319 138.019 440.824 126.884 440.824 114.22C440.824 101.502 443.319 90.3674 448.31 80.8156C453.354 71.2102 460.518 63.7512 469.802 58.4387C479.139 53.0725 490.3 50.3894 503.287 50.3894C516.273 50.3894 527.407 53.0725 536.691 58.4387C546.028 63.7512 553.192 71.2102 558.183 80.8156C563.227 90.3674 565.749 101.502 565.749 114.22C565.749 126.884 563.227 138.019 558.183 147.625C553.192 157.176 546.028 164.635 536.691 170.002C527.407 175.314 516.273 177.97 503.287 177.97ZM503.528 148.269C508.25 148.269 512.248 146.82 515.521 143.922C518.795 141.024 521.29 137 523.007 131.848C524.778 126.696 525.664 120.74 525.664 113.979C525.664 107.11 524.778 101.1 523.007 95.9483C521.29 90.7967 518.795 86.7721 515.521 83.8744C512.248 80.9766 508.25 79.5278 503.528 79.5278C498.645 79.5278 494.513 80.9766 491.132 83.8744C487.805 86.7721 485.256 90.7967 483.485 95.9483C481.768 101.1 480.91 107.11 480.91 113.979C480.91 120.74 481.768 126.696 483.485 131.848C485.256 137 487.805 141.024 491.132 143.922C494.513 146.82 498.645 148.269 503.528 148.269Z" fill="url(#paint11_linear_1015_10313)"/>
<path d="M377.367 175.636C372.151 175.636 367.922 171.407 367.922 166.191V61.4434C367.922 56.2274 372.151 51.9989 377.367 51.9989H396.712C401.928 51.9989 406.156 56.2274 406.156 61.4434V73.8056C406.156 74.2095 406.484 74.5369 406.888 74.5369V74.5369C407.217 74.5369 407.505 74.3163 407.596 74.0002C409.861 66.1138 413.486 60.2289 418.472 56.3455C423.57 52.3209 429.499 50.3086 436.261 50.3086C438.085 50.3086 439.963 50.4427 441.895 50.7111V50.7111C445.134 51.0709 447.288 53.9992 447.288 57.2578V78.3925C447.288 82.1048 443.567 84.89 439.883 84.4375V84.4375C436.878 84.0619 434.195 83.874 431.834 83.874C427.165 83.874 422.953 84.9204 419.196 87.0133C415.494 89.0524 412.569 91.9233 410.423 95.626C408.33 99.275 407.283 103.568 407.283 108.505V166.191C407.283 171.407 403.055 175.636 397.839 175.636H377.367Z" fill="url(#paint12_linear_1015_10313)"/>
<path d="M240.835 175.636C235.619 175.636 231.391 171.407 231.391 166.191V20.2313C231.391 15.0153 235.619 10.7869 240.835 10.7869H299.487C311.83 10.7869 322.482 13.2016 331.443 18.0312C340.458 22.8071 347.407 29.488 352.291 38.0739C357.174 46.6061 359.615 56.5336 359.615 67.8562C359.615 79.2325 357.12 89.1867 352.13 97.719C347.193 106.198 340.136 112.771 330.96 117.44C321.784 122.108 310.891 124.443 298.28 124.443H265.707C260.491 124.443 256.263 120.214 256.263 114.998V102.495C256.263 97.2788 260.491 93.0504 265.707 93.0504H290.875C296.885 93.0504 301.902 92.004 305.927 89.9112C310.005 87.8184 313.091 84.8938 315.184 81.1375C317.276 77.3275 318.323 72.9004 318.323 67.8562C318.323 62.7583 317.276 58.358 315.184 54.6554C313.091 50.8991 310.005 48.0013 305.927 45.9622C301.849 43.923 296.831 42.9035 290.875 42.9035H280.679C275.463 42.9035 271.235 47.1319 271.235 52.3479V166.191C271.235 171.407 267.006 175.636 261.79 175.636H240.835Z" fill="url(#paint13_linear_1015_10313)"/>
<defs>
<linearGradient id="paint0_linear_1015_10313" x1="80.7131" y1="20.5916" x2="80.7131" y2="181.365" gradientUnits="userSpaceOnUse">
<stop stop-color="#FF78E9"/>
<stop offset="1" stop-color="#4997CF"/>
</linearGradient>
<linearGradient id="paint1_linear_1015_10313" x1="64.9902" y1="0" x2="64.9902" y2="42.6141" gradientUnits="userSpaceOnUse">
<stop stop-color="#FF78E9"/>
<stop offset="1" stop-color="#4997CF"/>
</linearGradient>
<linearGradient id="paint2_linear_1015_10313" x1="156.526" y1="94.6416" x2="156.526" y2="131.042" gradientUnits="userSpaceOnUse">
<stop stop-color="#FF78E9"/>
<stop offset="1" stop-color="#4997CF"/>
</linearGradient>
<linearGradient id="paint3_linear_1015_10313" x1="112.843" y1="138.323" x2="112.843" y2="189.365" gradientUnits="userSpaceOnUse">
<stop stop-color="#FF78E9"/>
<stop offset="1" stop-color="#4997CF"/>
</linearGradient>
<linearGradient id="paint4_linear_1015_10313" x1="30.3952" y1="65.5216" x2="30.3952" y2="94.7243" gradientUnits="userSpaceOnUse">
<stop stop-color="#FF78E9"/>
<stop offset="1" stop-color="#4997CF"/>
</linearGradient>
<linearGradient id="paint5_linear_1015_10313" x1="1075.85" y1="51.9994" x2="1075.85" y2="222" gradientUnits="userSpaceOnUse">
<stop stop-color="#FF78E9"/>
<stop offset="1" stop-color="#4997CF"/>
</linearGradient>
<linearGradient id="paint6_linear_1015_10313" x1="987.429" y1="10.7869" x2="987.429" y2="175.636" gradientUnits="userSpaceOnUse">
<stop stop-color="#FF78E9"/>
<stop offset="1" stop-color="#4997CF"/>
</linearGradient>
<linearGradient id="paint7_linear_1015_10313" x1="918.472" y1="22.3776" x2="918.472" y2="177.498" gradientUnits="userSpaceOnUse">
<stop stop-color="#FF78E9"/>
<stop offset="1" stop-color="#4997CF"/>
</linearGradient>
<linearGradient id="paint8_linear_1015_10313" x1="810.817" y1="50.3894" x2="810.817" y2="222" gradientUnits="userSpaceOnUse">
<stop stop-color="#FF78E9"/>
<stop offset="1" stop-color="#4997CF"/>
</linearGradient>
<linearGradient id="paint9_linear_1015_10313" x1="683.521" y1="50.3894" x2="683.521" y2="177.97" gradientUnits="userSpaceOnUse">
<stop stop-color="#FF78E9"/>
<stop offset="1" stop-color="#4997CF"/>
</linearGradient>
<linearGradient id="paint10_linear_1015_10313" x1="584.882" y1="0.000610352" x2="584.882" y2="221.999" gradientUnits="userSpaceOnUse">
<stop stop-color="#FF78E9"/>
<stop offset="1" stop-color="#4997CF"/>
</linearGradient>
<linearGradient id="paint11_linear_1015_10313" x1="503.287" y1="50.3894" x2="503.287" y2="177.97" gradientUnits="userSpaceOnUse">
<stop stop-color="#FF78E9"/>
<stop offset="1" stop-color="#4997CF"/>
</linearGradient>
<linearGradient id="paint12_linear_1015_10313" x1="407.605" y1="50.3086" x2="407.605" y2="175.636" gradientUnits="userSpaceOnUse">
<stop stop-color="#FF78E9"/>
<stop offset="1" stop-color="#4997CF"/>
</linearGradient>
<linearGradient id="paint13_linear_1015_10313" x1="295.503" y1="10.7869" x2="295.503" y2="175.636" gradientUnits="userSpaceOnUse">
<stop stop-color="#FF78E9"/>
<stop offset="1" stop-color="#4997CF"/>
</linearGradient>
</defs>
</svg>
